<mxfile host="Electron" agent="Mozilla/5.0 (Macintosh; Intel Mac OS X 10_15_7) AppleWebKit/537.36 (KHTML, like Gecko) draw.io/26.2.15 Chrome/134.0.6998.205 Electron/35.2.1 Safari/537.36" version="26.2.15">
  <diagram name="Page-1" id="AifLXgubX8GngiQbFU3b">
    <mxGraphModel dx="1223" dy="749" grid="1" gridSize="10" guides="1" tooltips="1" connect="1" arrows="1" fold="1" page="1" pageScale="1" pageWidth="850" pageHeight="1100" background="none" math="0" shadow="0">
      <root>
        <mxCell id="0" />
        <mxCell id="1" parent="0" />
        <mxCell id="ZMP5Iq9UvZaPQy8PYHfP-3" value="" style="edgeStyle=orthogonalEdgeStyle;rounded=0;orthogonalLoop=1;jettySize=auto;html=1;" edge="1" parent="1" source="ZMP5Iq9UvZaPQy8PYHfP-1" target="ZMP5Iq9UvZaPQy8PYHfP-2">
          <mxGeometry relative="1" as="geometry" />
        </mxCell>
        <mxCell id="ZMP5Iq9UvZaPQy8PYHfP-1" value="Loading Base Model" style="rounded=1;whiteSpace=wrap;html=1;fillColor=#0050ef;fontColor=#ffffff;strokeColor=#001DBC;" vertex="1" parent="1">
          <mxGeometry x="150" y="140" width="120" height="60" as="geometry" />
        </mxCell>
        <mxCell id="ZMP5Iq9UvZaPQy8PYHfP-5" value="" style="edgeStyle=orthogonalEdgeStyle;rounded=0;orthogonalLoop=1;jettySize=auto;html=1;" edge="1" parent="1" source="ZMP5Iq9UvZaPQy8PYHfP-2" target="ZMP5Iq9UvZaPQy8PYHfP-4">
          <mxGeometry relative="1" as="geometry" />
        </mxCell>
        <mxCell id="ZMP5Iq9UvZaPQy8PYHfP-2" value="Loading Dataset" style="whiteSpace=wrap;html=1;rounded=1;fillColor=#0050ef;fontColor=#ffffff;strokeColor=#001DBC;" vertex="1" parent="1">
          <mxGeometry x="150" y="280" width="120" height="60" as="geometry" />
        </mxCell>
        <mxCell id="ZMP5Iq9UvZaPQy8PYHfP-7" value="" style="edgeStyle=orthogonalEdgeStyle;rounded=0;orthogonalLoop=1;jettySize=auto;html=1;" edge="1" parent="1" source="ZMP5Iq9UvZaPQy8PYHfP-4" target="ZMP5Iq9UvZaPQy8PYHfP-6">
          <mxGeometry relative="1" as="geometry" />
        </mxCell>
        <mxCell id="ZMP5Iq9UvZaPQy8PYHfP-9" value="" style="edgeStyle=orthogonalEdgeStyle;rounded=0;orthogonalLoop=1;jettySize=auto;html=1;" edge="1" parent="1" source="ZMP5Iq9UvZaPQy8PYHfP-4" target="ZMP5Iq9UvZaPQy8PYHfP-8">
          <mxGeometry relative="1" as="geometry" />
        </mxCell>
        <mxCell id="ZMP5Iq9UvZaPQy8PYHfP-10" value="" style="edgeStyle=orthogonalEdgeStyle;rounded=0;orthogonalLoop=1;jettySize=auto;html=1;" edge="1" parent="1" source="ZMP5Iq9UvZaPQy8PYHfP-4" target="ZMP5Iq9UvZaPQy8PYHfP-8">
          <mxGeometry relative="1" as="geometry" />
        </mxCell>
        <mxCell id="ZMP5Iq9UvZaPQy8PYHfP-11" value="" style="edgeStyle=orthogonalEdgeStyle;rounded=0;orthogonalLoop=1;jettySize=auto;html=1;" edge="1" parent="1" source="ZMP5Iq9UvZaPQy8PYHfP-4" target="ZMP5Iq9UvZaPQy8PYHfP-8">
          <mxGeometry relative="1" as="geometry" />
        </mxCell>
        <mxCell id="ZMP5Iq9UvZaPQy8PYHfP-13" style="edgeStyle=orthogonalEdgeStyle;rounded=0;orthogonalLoop=1;jettySize=auto;html=1;exitX=0.5;exitY=1;exitDx=0;exitDy=0;entryX=0.5;entryY=0;entryDx=0;entryDy=0;" edge="1" parent="1" source="ZMP5Iq9UvZaPQy8PYHfP-4" target="ZMP5Iq9UvZaPQy8PYHfP-12">
          <mxGeometry relative="1" as="geometry" />
        </mxCell>
        <mxCell id="ZMP5Iq9UvZaPQy8PYHfP-4" value="Supervised Fine-Tuning wih QLoRa Adapters" style="whiteSpace=wrap;html=1;rounded=1;fillColor=#f0a30a;fontColor=#000000;strokeColor=#BD7000;" vertex="1" parent="1">
          <mxGeometry x="350" y="280" width="120" height="60" as="geometry" />
        </mxCell>
        <mxCell id="ZMP5Iq9UvZaPQy8PYHfP-6" value="Training Logs" style="whiteSpace=wrap;html=1;rounded=1;fillColor=#6a00ff;fontColor=#ffffff;strokeColor=#3700CC;" vertex="1" parent="1">
          <mxGeometry x="550" y="280" width="120" height="60" as="geometry" />
        </mxCell>
        <mxCell id="ZMP5Iq9UvZaPQy8PYHfP-8" value="Fine-Tuned Model" style="whiteSpace=wrap;html=1;rounded=1;fillColor=#a20025;fontColor=#ffffff;strokeColor=#6F0000;" vertex="1" parent="1">
          <mxGeometry x="270" y="410" width="120" height="60" as="geometry" />
        </mxCell>
        <mxCell id="ZMP5Iq9UvZaPQy8PYHfP-12" value="LoRa Adapter Weights" style="whiteSpace=wrap;html=1;rounded=1;fillColor=#a20025;fontColor=#ffffff;strokeColor=#6F0000;" vertex="1" parent="1">
          <mxGeometry x="425" y="410" width="120" height="60" as="geometry" />
        </mxCell>
      </root>
    </mxGraphModel>
  </diagram>
</mxfile>
